<?xml version="1.0" encoding="utf-8"?>
<!-- Generator: Adobe Illustrator 24.1.2, SVG Export Plug-In . SVG Version: 6.00 Build 0)  -->
<svg version="1.1"
	 id="svg96" xmlns:cc="http://creativecommons.org/ns#" xmlns:dc="http://purl.org/dc/elements/1.1/" xmlns:rdf="http://www.w3.org/1999/02/22-rdf-syntax-ns#" xmlns:svg="http://www.w3.org/2000/svg"
	 xmlns="http://www.w3.org/2000/svg" xmlns:xlink="http://www.w3.org/1999/xlink" x="0px" y="0px" viewBox="0 0 1266 1106"
	 style="enable-background:new 0 0 1266 1106;" xml:space="preserve">
<style type="text/css">
	.st0{fill:url(#circle11_1_);}
	.st1{fill:#2B338D;}
	.st2{fill:url(#path39_1_);}
	.st3{fill:url(#rect48_1_);}
	.st4{fill:url(#path57_1_);}
	.st5{fill:url(#path66_1_);}
	.st6{fill:url(#rect75_1_);}
	.st7{fill:url(#path84_1_);}
	.st8{fill:#FFFFFF;}
</style>
<desc  id="desc2">Created with Fabric.js 2.4.6</desc>
<g id="g13" transform="matrix(12.4,0,0,12.4,633.74,634.07)">
	
		<linearGradient id="circle11_1_" gradientUnits="userSpaceOnUse" x1="-26.7913" y1="22.8588" x2="-114.0324" y2="110.1" gradientTransform="matrix(153.76 0 0 153.76 4163.0576 -3564.8792)">
		<stop  offset="0" style="stop-color:#000000"/>
		<stop  offset="1" style="stop-color:#009BFF"/>
	</linearGradient>
	<path id="circle11" class="st0" d="M43.7-6.5c0,24.1-19.5,43.7-43.7,43.7S-43.7,17.6-43.7-6.5S-24.1-50.2,0-50.2
		S43.7-30.6,43.7-6.5z"/>
</g>
<g id="g27" transform="matrix(12.63,0,0,12.63,634,634.28)">
	<g id="g17" transform="matrix(1.03,0,0,1.03,-0.05,-0.05)">
		<path id="path15" class="st1" d="M0,36.2c-23.4,0-42.4-19-42.4-42.4s19-42.4,42.4-42.4s42.4,19,42.4,42.4S23.4,36.2,0,36.2z
			 M0,33.5c21.9,0,39.7-17.8,39.7-39.7S21.9-45.9,0-45.9S-39.7-28.1-39.7-6.2S-21.9,33.5,0,33.5z"/>
	</g>
	<g id="g21" transform="matrix(1.03,0,0,1.03,2.82,12.42)">
		<path id="path19" class="st1" d="M10.9-33.6c-0.1-0.1-17.6,3.2-17.6,3.2s-0.1,1.6-3.7,10.5C-10.5-19.8-21-8.7-21-8.7
			s7.5-0.5,10.2-2.4C-10.5-8.6-12,1.5-12,1.5L-0.3-7l5.7,7.4l6.9-9.8L18.2-7c0,0,0.3-8.6,0-8.3c2.5,2.7,10,4.2,10,4.2
			S16-19.5,10.9-33.6L10.9-33.6z M11.6-35.4c1.1,8,14,23.6,22.7,26.2C29.7,7.4,15.2,19.9-2.4,19.9c-13.2,0-25.6-7-32.6-17.4
			c-1.1-1.7,12-9.2,23.8-23.3c3.7-9.3,3.4-10.5,3.4-10.5S11.6-35.5,11.6-35.4L11.6-35.4z"/>
	</g>
	<g id="g25" transform="matrix(1.03,0,0,1.03,-1.33,-12.14)">
		<path id="path23" class="st1" d="M32.1-16.7c0.5,0.8,1.1,1.6,1.5,2.5c2.8,4.9,3.8,10.5,3.8,10.5L16.3-7.1c-0.6-1.3-1-2.5-1.1-3.6
			c0,0-4.6,0.9-9.3,1.9l-12.5-2C-6.9-9.3-7.5-8-8.4-6.9l4,2.7C-4.7-2.9-5.4-1-6.5,2l-4.4-6.8c-1.3,0.7-2.8,1.1-4.3,1.1l0,0l1.3,14.5
			c-5.5,5.4-10.7,9.6-13.9,12.4l9.4-27.5c-0.9-0.4-1.8-0.9-2.5-1.5l-15.9,15.9c-0.2-1.5-0.3-3-0.3-4.6c0-3,0.4-6,1-8.8L-23-8.5
			c-0.6-1.2-1-2.6-1-4c0-0.2,0-0.4,0-0.5l-8.1-0.6c1.4-2.4,3.1-4.7,4.9-6.7l4.5,3.2c0.6-0.9,1.4-1.8,2.3-2.4l-3-4.3
			c2-1.6,4.1-3.1,6.4-4.3l0.4,7c0.4-0.1,0.9-0.1,1.3-0.1c1.3,0,2.6,0.3,3.7,0.8L-6-32c2.3-0.4,4.6-0.6,7-0.6s4.8,0.2,7,0.6
			L-8.5-18.1c0.8,1,1.4,2.1,1.7,3.3l31.4-9.7C27.5-22.2,30-19.6,32.1-16.7z"/>
	</g>
</g>
<g id="g88" transform="matrix(4.15,0,0,4.15,452.33,363.72)">
	<g id="g41" transform="matrix(1.67,0,0,1.67,0.1,0.1)">
		
			<linearGradient id="path39_1_" gradientUnits="userSpaceOnUse" x1="-21.9909" y1="71.2525" x2="-21.9909" y2="123.5972" gradientTransform="matrix(48.0318 0 0 48.0318 1059.5861 -3455.2349)">
			<stop  offset="0" style="stop-color:#6A6A6A"/>
			<stop  offset="1" style="stop-color:#FFFFFF"/>
		</linearGradient>
		<path id="path39" class="st2" d="M-1.7,9h31.2V-1.5h-22l0.4-1.1C8.3-3.7,8.5-4.9,8.5-6C7.4-5.3,6-5,4.7-5C2-5-0.2-7.1-0.2-9.8
			c0-1-0.5-2-1.4-2.6l-1.7-1.1c-1.4-0.9-2.2-2.4-2.2-4c0-0.8,0.2-1.5,0.6-2.2c-1.6,0-3.1,0.3-4.4,0.9l1.3,2c0.5,0.8,0.8,1.7,0.8,2.7
			v1.4c0,1,0.8,1.7,1.7,1.7C-3.6-11-2-9.4-2-7.5S-3.6-4-5.5-4h-4.6c-1.8,0-3.4-1.1-4-2.7c-0.4-1-1.3-1.6-2.4-1.6c-0.3,0-0.7,0-1-0.1
			c-0.1,0.6-0.1,1.2-0.1,1.9c0,2.2,0.6,4.3,1.6,6.2c0.6-0.5,1.2-0.8,1.9-1.1c1.1-0.5,2.2-0.7,3.4-0.7h3.5c2.1,0,3.9,1.2,4.9,3
			c0.4,0.8,0.6,1.6,0.6,2.4v3C-1.4,6-1,5.9-0.5,5.7L0,7.4c-1.4,0.5-3,0.7-4.6,0.7c-8.2,0-14.8-6.7-14.8-14.8s6.7-14.8,14.8-14.8
			s14.8,6.7,14.8,14.8c0,1.2-0.1,2.4-0.4,3.5h3.9v-5.4l-1.9-0.5l-0.1-0.6c-0.4-2.3-1.3-4.5-2.7-6.5l-0.3-0.5l1-1.7L7-21l-1.7,1
			l-0.5-0.3c-0.4-0.3-0.7-0.5-1.1-0.7l3.5-4.9h14.4v-1.7h-1.7v-5.2h-1.7v5.2h-1.7V-31h-1.7v3.5h-1.7v-5.2h-1.7v5.2h-2v-1.7H7.7v1.7
			H6.3l-4.2,5.8c-1.1-0.6-2.4-1-3.7-1.2l-0.6-0.1L-2.6-25h-3.9L-7-23.1L-7.5-23c-2.3,0.4-4.5,1.3-6.5,2.7l-0.5,0.3l-1.7-1l-2.7,2.7
			l1,1.7l-0.3,0.5c-1.3,1.9-2.2,4.1-2.7,6.5L-21-9.1l-1.9,0.5v3.9l1.9,0.5l0.1,0.6c0.4,2.3,1.3,4.5,2.7,6.5l0.3,0.5l-1,1.7l2.7,2.7
			l1.7-1l0.5,0.3c1.9,1.3,4.1,2.2,6.5,2.7L-7,9.7l0.5,1.9h1.3l2.6,7.9h17.2v-1.7h-1.7v-3.5h-1.7v3.5H9.4V16H7.7v1.7H5.9v-5.2H4.2
			v5.2H2.4v-3.5H0.7v3.5h-2l-2-6.1h0.8L-1.7,9z M3.3,7.3H1.6v-7h1.7C3.3,0.3,3.3,7.3,3.3,7.3z M26,0.3h1.7v7H26V0.3z M22.5,0.3h1.7
			v7h-1.7V0.3z M15.5,2c0-1,0.8-1.7,1.7-1.7H19c1,0,1.7,0.8,1.7,1.7v3.5c0,1-0.8,1.7-1.7,1.7h-1.7c-1,0-1.7-0.8-1.7-1.7L15.5,2
			L15.5,2z M12,0.3h1.7v7H12V0.3z M8.5,0.3c1,0,1.7,0.8,1.7,1.7v3.5c0,1-0.8,1.7-1.7,1.7H6.8C5.8,7.3,5,6.5,5,5.5V2
			c0-1,0.8-1.7,1.7-1.7C6.7,0.3,8.5,0.3,8.5,0.3z M-0.2-1.5v-1.7h6.1v1.7H-0.2z"/>
	</g>
	<g id="g50" transform="matrix(1.67,0,0,1.67,8.34,20)">
		
			<linearGradient id="rect48_1_" gradientUnits="userSpaceOnUse" x1="-28.3169" y1="60.8664" x2="-28.3169" y2="64.356" gradientTransform="matrix(48.0318 0 0 48.0318 1362.7775 -2933.4646)">
			<stop  offset="0" style="stop-color:#6A6A6A"/>
			<stop  offset="1" style="stop-color:#FFFFFF"/>
		</linearGradient>
		<path id="rect48" class="st3" d="M1.8-10h1.7v3.5H1.8V-10z"/>
	</g>
	<g id="g59" transform="matrix(1.67,0,0,1.67,-24.25,18.35)">
		
			<linearGradient id="path57_1_" gradientUnits="userSpaceOnUse" x1="-5.5708" y1="62.5734" x2="-5.5708" y2="69.5527" gradientTransform="matrix(48.0318 0 0 48.0318 272.7592 -3017.0737)">
			<stop  offset="0" style="stop-color:#6A6A6A"/>
			<stop  offset="1" style="stop-color:#FFFFFF"/>
		</linearGradient>
		<path id="path57" class="st4" d="M10-4.6c0.3,0,0.6,0,0.9,0v-3.3c0-0.6-0.1-1.1-0.4-1.7c-0.6-1.3-1.9-2-3.3-2H3.7
			c-0.9,0-1.8,0.2-2.7,0.6c-0.6,0.2-1.1,0.6-1.6,1C1.8-6.7,5.7-4.6,10-4.6z"/>
	</g>
	<g id="g68" transform="matrix(1.67,0,0,1.67,-1.73,-12.35)">
		
			<linearGradient id="path66_1_" gradientUnits="userSpaceOnUse" x1="-20.7568" y1="77.9071" x2="-20.7568" y2="90.8634" gradientTransform="matrix(48.0318 0 0 48.0318 1000.4079 -3754.219)">
			<stop  offset="0" style="stop-color:#6A6A6A"/>
			<stop  offset="1" style="stop-color:#FFFFFF"/>
		</linearGradient>
		<path id="path66" class="st5" d="M-1.8-12.2c-0.5,0.6-0.9,1.3-0.9,2.1c0,1,0.5,2,1.4,2.6l1.7,1.1c1.4,0.9,2.2,2.4,2.2,4
			c0,1.7,1.4,3.1,3.1,3.1c1.4,0,2.7-0.5,3.8-1.5C8.8-6.7,4.2-11.4-1.8-12.2z"/>
	</g>
	<g id="g77" transform="matrix(1.67,0,0,1.67,28.33,20)">
		
			<linearGradient id="rect75_1_" gradientUnits="userSpaceOnUse" x1="-42.0455" y1="60.8664" x2="-42.0455" y2="64.356" gradientTransform="matrix(48.0318 0 0 48.0318 2020.6798 -2933.4646)">
			<stop  offset="0" style="stop-color:#6A6A6A"/>
			<stop  offset="1" style="stop-color:#FFFFFF"/>
		</linearGradient>
		<path id="rect75" class="st6" d="M0.3-10H2v3.5H0.3V-10z"/>
	</g>
	<g id="g86" transform="matrix(1.67,0,0,1.67,-26.16,-10.06)">
		
			<linearGradient id="path84_1_" gradientUnits="userSpaceOnUse" x1="-4.2837" y1="76.7654" x2="-4.2837" y2="89.0725" gradientTransform="matrix(48.0318 0 0 48.0318 211.0381 -3699.2385)">
			<stop  offset="0" style="stop-color:#6A6A6A"/>
			<stop  offset="1" style="stop-color:#FFFFFF"/>
		</linearGradient>
		<path id="path84" class="st7" d="M6.3-9.9l-1.5-2.2c-3,1.7-5.3,4.5-6.2,7.9c0.2,0,0.4,0.1,0.6,0.1c1.8,0,3.4,1.1,4,2.7
			c0.4,1,1.3,1.6,2.4,1.6h4.6c1,0,1.7-0.8,1.7-1.7s-0.8-1.7-1.7-1.7c-1.9,0-3.5-1.6-3.5-3.5v-1.4C6.8-8.8,6.6-9.4,6.3-9.9z"/>
	</g>
</g>
<g id="g94" transform="translate(629.02,945.31)">
	<g id="text92">
		<path id="path105" class="st8" d="M-353.8-139.8c4.2,0,8,1,11.4,2.9c3.5,1.9,6.2,4.6,8.1,8.1c2,3.5,2.9,7.5,2.9,12.2
			c0,4.7-1,8.7-2.9,12.2c-2,3.5-4.7,6.2-8.1,8.1s-7.2,2.9-11.4,2.9c-6.2,0-10.9-2-14.2-5.9v5.2h-12.5v-62h13.1v21.9
			C-364.1-138-359.6-139.8-353.8-139.8L-353.8-139.8z M-356.1-104.2c3.4,0,6.1-1.1,8.2-3.4c2.2-2.3,3.3-5.3,3.3-9.1
			c0-3.8-1.1-6.8-3.3-9.1c-2.1-2.3-4.9-3.4-8.2-3.4s-6.1,1.1-8.3,3.4c-2.1,2.2-3.2,5.3-3.2,9.1c0,3.8,1.1,6.8,3.2,9.1
			C-362.2-105.3-359.4-104.2-356.1-104.2z"/>
		<path id="path107" class="st8" d="M-322.7-139.1h13.1v45.1h-13.1V-139.1z M-316.2-145.4c-2.4,0-4.4-0.7-5.9-2.1
			c-1.5-1.4-2.3-3.1-2.3-5.2s0.8-3.8,2.3-5.2c1.5-1.4,3.5-2.1,5.9-2.1s4.4,0.7,5.9,2c1.5,1.3,2.3,3,2.3,5c0,2.2-0.8,4-2.3,5.4
			C-311.8-146.1-313.7-145.4-316.2-145.4z"/>
		<path id="path109" class="st8" d="M-270.2-139.8c5.6,0,10.1,1.7,13.5,5c3.5,3.4,5.2,8.3,5.2,14.9v25.8h-13.1v-23.8
			c0-3.6-0.8-6.2-2.3-8c-1.6-1.8-3.8-2.7-6.8-2.7c-3.3,0-5.9,1-7.9,3.1c-2,2-2.9,5-2.9,9.1v22.3h-13.1v-45.1h12.5v5.3
			c1.7-1.9,3.9-3.4,6.5-4.4C-276-139.3-273.1-139.8-270.2-139.8z"/>
		<path id="path111" class="st8" d="M-221.4-139.8c7,0,12.4,1.7,16.1,5c3.7,3.3,5.6,8.3,5.6,15v25.7h-12.2v-5.6
			c-2.5,4.2-7,6.3-13.7,6.3c-3.5,0-6.5-0.6-9.1-1.8c-2.5-1.2-4.4-2.8-5.8-4.9c-1.3-2.1-2-4.4-2-7c0-4.2,1.6-7.5,4.7-9.9
			c3.2-2.4,8.1-3.6,14.7-3.6h10.4c0-2.9-0.9-5-2.6-6.5c-1.7-1.6-4.3-2.3-7.8-2.3c-2.4,0-4.8,0.4-7.1,1.2c-2.3,0.7-4.2,1.7-5.9,3
			l-4.7-9.1c2.5-1.7,5.4-3.1,8.8-4C-228.6-139.3-225.1-139.8-221.4-139.8L-221.4-139.8z M-222.4-102.3c2.2,0,4.2-0.5,6-1.5
			c1.7-1.1,3-2.6,3.7-4.6v-4.6h-9c-5.4,0-8,1.8-8,5.3c0,1.7,0.6,3,1.9,4C-226.5-102.7-224.7-102.3-222.4-102.3L-222.4-102.3z"/>
		<path id="path113" class="st8" d="M-175.4-133.2c1.6-2.2,3.7-3.8,6.3-4.9c2.7-1.1,5.8-1.7,9.2-1.7v12.1c-1.5-0.1-2.4-0.2-2.9-0.2
			c-3.7,0-6.7,1.1-8.8,3.2c-2.1,2.1-3.2,5.2-3.2,9.4v21.3h-13.1v-45.1h12.5V-133.2z"/>
		<path id="path115" class="st8" d="M-105.7-139.1l-20.4,47.9c-2.1,5.2-4.6,8.9-7.7,11c-3,2.1-6.7,3.2-11,3.2c-2.3,0-4.7-0.4-7-1.1
			c-2.3-0.7-4.2-1.7-5.6-3l4.8-9.3c1,0.9,2.2,1.6,3.4,2.1c1.3,0.5,2.7,0.8,3.9,0.8c1.8,0,3.2-0.4,4.4-1.3c1.1-0.8,2.1-2.3,3-4.3
			l0.2-0.4l-19.5-45.4h13.5l12.7,30.6l12.7-30.6h12.6V-139.1z"/>
		<path id="path117" class="st8" d="M-100.4-156.2h13.1v62.1h-13.1V-156.2z"/>
		<path id="path119" class="st8" d="M-57-139.8c7,0,12.4,1.7,16.1,5s5.6,8.3,5.6,15v25.7h-12.2v-5.6c-2.5,4.2-7,6.3-13.7,6.3
			c-3.5,0-6.5-0.6-9.1-1.8c-2.5-1.2-4.4-2.8-5.8-4.9c-1.3-2.1-2-4.4-2-7c0-4.2,1.6-7.5,4.7-9.9c3.2-2.4,8.1-3.6,14.7-3.6h10.4
			c0-2.9-0.9-5-2.6-6.5c-1.7-1.6-4.3-2.3-7.8-2.3c-2.4,0-4.8,0.4-7.1,1.2c-2.3,0.7-4.2,1.7-5.9,3l-4.7-9.1c2.5-1.7,5.4-3.1,8.8-4
			C-64.2-139.3-60.6-139.8-57-139.8z M-58-102.3c2.2,0,4.2-0.5,6-1.5c1.7-1.1,3-2.6,3.7-4.6v-4.6h-9c-5.4,0-8,1.8-8,5.3
			c0,1.7,0.6,3,1.9,4C-62.1-102.7-60.3-102.3-58-102.3z"/>
		<path id="path121" class="st8" d="M3.9-139.8c5.6,0,10.1,1.7,13.5,5c3.5,3.4,5.2,8.3,5.2,14.9v25.8H9.5v-23.8c0-3.6-0.8-6.2-2.3-8
			c-1.6-1.8-3.8-2.7-6.8-2.7c-3.3,0-5.9,1-7.9,3.1c-2,2-2.9,5-2.9,9.1v22.3h-13.1v-45.1H-11v5.3c1.7-1.9,3.9-3.4,6.5-4.4
			C-2-139.3,0.8-139.8,3.9-139.8z"/>
		<path id="path123" class="st8" d="M80.8-156.2v62.1H68.3v-5.2c-3.2,3.9-7.9,5.9-14.1,5.9c-4.2,0-8.1-1-11.6-2.9
			c-3.4-1.9-6.1-4.6-8-8.1c-2-3.5-2.9-7.6-2.9-12.2c0-4.6,1-8.7,2.9-12.2c2-3.5,4.6-6.2,8-8.1c3.5-1.9,7.3-2.9,11.6-2.9
			c5.8,0,10.3,1.8,13.5,5.4v-21.9H80.8z M56.5-104.2c3.3,0,6-1.1,8.2-3.4c2.2-2.3,3.3-5.3,3.3-9.1s-1.1-6.8-3.3-9.1
			c-2.2-2.3-4.9-3.4-8.2-3.4c-3.4,0-6.1,1.1-8.3,3.4c-2.2,2.2-3.3,5.3-3.3,9.1c0,3.8,1.1,6.8,3.3,9.1
			C50.4-105.3,53.2-104.2,56.5-104.2z"/>
		<path id="path125" class="st8" d="M107.9-93.5c-3.7,0-7.4-0.4-11-1.3c-3.6-1-6.4-2.1-8.6-3.5l4.4-9.4c2,1.3,4.4,2.3,7.3,3.2
			c2.9,0.8,5.6,1.2,8.4,1.2c5.5,0,8.3-1.4,8.3-4.1c0-1.3-0.8-2.2-2.3-2.8c-1.5-0.6-3.8-1-7-1.4c-3.7-0.6-6.7-1.2-9.1-1.9
			c-2.4-0.7-4.5-2-6.3-3.9c-1.7-1.8-2.6-4.5-2.6-7.9c0-2.9,0.8-5.4,2.4-7.5c1.7-2.2,4.1-4,7.2-5.2c3.2-1.2,6.9-1.8,11.2-1.8
			c3.2,0,6.3,0.4,9.5,1.1s5.8,1.6,7.9,2.9l-4.4,9.3c-4-2.2-8.3-3.4-13-3.4c-2.8,0-4.9,0.4-6.3,1.2c-1.4,0.8-2.1,1.8-2.1,3
			c0,1.4,0.8,2.4,2.3,2.9c1.5,0.6,3.9,1.1,7.2,1.6c3.7,0.6,6.7,1.3,9.1,2c2.3,0.7,4.4,1.9,6.1,3.8c1.7,1.8,2.6,4.4,2.6,7.7
			c0,2.8-0.8,5.3-2.5,7.5c-1.7,2.2-4.1,3.9-7.4,5.1C116.2-94,112.4-93.5,107.9-93.5L107.9-93.5z"/>
		<path id="path127" class="st8" d="M159.1-93.5c-4.8,0-9.1-1-13-2.9c-3.8-2-6.8-4.8-9-8.3c-2.1-3.5-3.2-7.5-3.2-12
			c0-4.5,1.1-8.5,3.2-12c2.2-3.5,5.2-6.3,9-8.2c3.9-2,8.2-3,13-3s8.9,1,12.4,3c3.6,2,6.2,4.8,7.8,8.5l-10.1,5.4
			c-2.3-4.1-5.7-6.2-10.1-6.2c-3.4,0-6.2,1.1-8.5,3.4c-2.2,2.2-3.4,5.3-3.4,9.1c0,3.8,1.1,6.9,3.4,9.1c2.2,2.2,5.1,3.4,8.5,3.4
			c4.5,0,7.9-2.1,10.1-6.2l10.1,5.5c-1.6,3.6-4.2,6.4-7.8,8.4C168-94.5,163.9-93.5,159.1-93.5L159.1-93.5z"/>
		<path id="path129" class="st8" d="M205-139.8c7,0,12.4,1.7,16.1,5c3.7,3.3,5.6,8.3,5.6,15v25.7h-12.2v-5.6
			c-2.5,4.2-7,6.3-13.7,6.3c-3.5,0-6.5-0.6-9.1-1.8c-2.5-1.2-4.4-2.8-5.8-4.9c-1.3-2.1-2-4.4-2-7c0-4.2,1.6-7.5,4.7-9.9
			c3.2-2.4,8.1-3.6,14.7-3.6h10.4c0-2.9-0.9-5-2.6-6.5c-1.7-1.6-4.3-2.3-7.8-2.3c-2.4,0-4.8,0.4-7.1,1.2c-2.3,0.7-4.2,1.7-5.9,3
			l-4.7-9.1c2.5-1.7,5.4-3.1,8.8-4C197.8-139.3,201.4-139.8,205-139.8z M204-102.3c2.2,0,4.2-0.5,6-1.5c1.7-1.1,3-2.6,3.7-4.6v-4.6
			h-9c-5.4,0-8,1.8-8,5.3c0,1.7,0.6,3,1.9,4C199.9-102.7,201.7-102.3,204-102.3L204-102.3z"/>
		<path id="path131" class="st8" d="M265.2-139.8c4.2,0,8,1,11.4,2.9c3.5,1.9,6.2,4.6,8.1,8.1c2,3.5,2.9,7.5,2.9,12.2
			c0,4.7-1,8.7-2.9,12.2c-2,3.5-4.7,6.2-8.1,8.1s-7.2,2.9-11.4,2.9c-5.8,0-10.3-1.8-13.6-5.4v21h-13.1v-61.3H251v5.2
			C254.3-137.8,259-139.8,265.2-139.8L265.2-139.8z M262.9-104.2c3.4,0,6.1-1.1,8.2-3.4c2.2-2.3,3.3-5.3,3.3-9.1
			c0-3.8-1.1-6.8-3.3-9.1c-2.1-2.3-4.9-3.4-8.2-3.4s-6.1,1.1-8.3,3.4c-2.1,2.2-3.2,5.3-3.2,9.1c0,3.8,1.1,6.8,3.2,9.1
			C256.8-105.3,259.6-104.2,262.9-104.2z"/>
		<path id="path133" class="st8" d="M340.4-116.4c0,0.2-0.1,1.3-0.3,3.5H306c0.6,2.8,2.1,5,4.4,6.6c2.3,1.6,5.1,2.4,8.6,2.4
			c2.3,0,4.4-0.3,6.2-1s3.5-1.8,5.1-3.4l7,7.5c-4.2,4.9-10.5,7.3-18.6,7.3c-5.1,0-9.6-1-13.5-2.9c-3.9-2-6.9-4.8-9.1-8.3
			c-2.1-3.5-3.2-7.5-3.2-12c0-4.4,1-8.4,3.1-11.9c2.1-3.6,5-6.3,8.6-8.3c3.7-2,7.8-3,12.3-3c4.4,0,8.4,1,12,2.9s6.4,4.6,8.4,8.2
			C339.4-125.2,340.4-121.1,340.4-116.4L340.4-116.4z M317-129.9c-3,0-5.4,0.8-7.5,2.5c-2,1.7-3.2,4-3.7,6.9H328
			c-0.4-2.9-1.7-5.1-3.7-6.8C322.4-129,319.9-129.9,317-129.9z"/>
		<path id="path135" class="st8" d="M364.3-93.5c-3.7,0-7.4-0.4-11-1.3c-3.6-1-6.4-2.1-8.6-3.5l4.4-9.4c2,1.3,4.4,2.3,7.3,3.2
			c2.9,0.8,5.6,1.2,8.4,1.2c5.5,0,8.3-1.4,8.3-4.1c0-1.3-0.8-2.2-2.3-2.8c-1.5-0.6-3.8-1-7-1.4c-3.7-0.6-6.7-1.2-9.1-1.9
			c-2.4-0.7-4.5-2-6.3-3.9c-1.7-1.8-2.6-4.5-2.6-7.9c0-2.9,0.8-5.4,2.4-7.5c1.7-2.2,4.1-4,7.2-5.2c3.2-1.2,6.9-1.8,11.2-1.8
			c3.2,0,6.3,0.4,9.5,1.1s5.8,1.6,7.9,2.9l-4.4,9.3c-4-2.2-8.3-3.4-13-3.4c-2.8,0-4.9,0.4-6.3,1.2c-1.4,0.8-2.1,1.8-2.1,3
			c0,1.4,0.8,2.4,2.3,2.9c1.5,0.6,3.9,1.1,7.2,1.6c3.7,0.6,6.7,1.3,9.1,2c2.3,0.7,4.4,1.9,6.1,3.8c1.7,1.8,2.6,4.4,2.6,7.7
			c0,2.8-0.8,5.3-2.5,7.5c-1.7,2.2-4.1,3.9-7.4,5.1C372.5-94,368.7-93.5,364.3-93.5L364.3-93.5z"/>
	</g>
</g>
</svg>
